# xmcd
#
# Track frame offsets:
#	150
#	40788
#	137754
#	172482
#	206190
#	257056
#	287449
#
# Disc length: 4391 seconds
#
# Revision: 1
# Processed by: cddbd v1.5.2PL0 Copyright (c) Steve Scherf et al.
# Submitted via: audiograbber 1.83.01
#
DISCID=6c112507
DTITLE=Grateful Dead - 73-12-19A Curtis Hixon Convention Hall, Tampa FL
DYEAR=1900
DGENRE=
TTITLE0=Ramble On Rose
TTITLE1=Playing In The Band
TTITLE2=Mississippi Half-Step
TTITLE3=Me and Bobby McGee
TTITLE4=Row Jimmy
TTITLE5=WRS Prelude > WRS Part One
TTITLE6=Let It Grow
EXTD=
EXTT0=
EXTT1=
EXTT2=
EXTT3=
EXTT4=
EXTT5=
EXTT6=
PLAYORDER=
